<svg width="40" height="40" viewBox="0 0 40 40" fill="none" xmlns="http://www.w3.org/2000/svg">
<path d="M32.3615 11.1315C34.0782 12.9548 34.9999 14.9998 34.9999 18.3148C34.9999 24.1482 30.9049 29.3765 24.9499 31.9615L23.4615 29.6648C29.0199 26.6582 30.1065 22.7565 30.5399 20.2965C29.6449 20.7598 28.4732 20.9215 27.3249 20.8148C24.3182 20.5365 21.9482 18.0682 21.9482 14.9998C21.9482 13.4527 22.5628 11.969 23.6567 10.875C24.7507 9.78109 26.2344 9.1665 27.7815 9.1665C29.5699 9.1665 31.2799 9.98317 32.3615 11.1315ZM15.6949 11.1315C17.4115 12.9548 18.3332 14.9998 18.3332 18.3148C18.3332 24.1482 14.2382 29.3765 8.2832 31.9615L6.79487 29.6648C12.3532 26.6582 13.4399 22.7565 13.8732 20.2965C12.9782 20.7598 11.8065 20.9215 10.6582 20.8148C7.65154 20.5365 5.2832 18.0682 5.2832 14.9998C5.2832 13.4527 5.89778 11.969 6.99175 10.875C8.08571 9.78109 9.56944 9.1665 11.1165 9.1665C12.9049 9.1665 14.6149 9.98317 15.6965 11.1315H15.6949Z" fill="#F59E00"/>
</svg>
