<svg width="113" height="18" viewBox="0 0 113 18" fill="none" xmlns="http://www.w3.org/2000/svg">
<path d="M23.52 0.269396L18.84 17.0214H14.88L11.736 5.0934L8.448 17.0214L4.512 17.0454L0 0.269396C0 0.269396 2.23557 -0.0694797 3.6 0.269396C8.65552 1.525 1.34574 13.1051 6.552 13.2774C11.8005 13.4511 4.86731 1.55063 9.96 0.269396C11.3779 -0.0873334 12.2873 -0.0922555 13.704 0.269396C18.7478 1.55698 11.7152 13.2967 16.92 13.2054C22.103 13.1144 14.8678 1.53006 19.896 0.269396C21.2688 -0.0747858 23.52 0.269396 23.52 0.269396Z" fill="white"/>
<path d="M24.3699 10.3254C24.3699 8.9814 24.6339 7.7894 25.1619 6.74939C25.7059 5.70939 26.4339 4.9094 27.3459 4.3494C28.2739 3.7894 29.3059 3.5094 30.4419 3.5094C31.4339 3.5094 32.2979 3.7094 33.0339 4.1094C33.7859 4.5094 34.3859 5.0134 34.8339 5.6214C34.8339 5.6214 34.472 4.37135 34.8339 3.7254C35.4799 2.57249 38.2179 3.7254 38.2179 3.7254V17.0214H34.8339V15.0774C34.4019 15.7014 33.8019 16.2214 33.0339 16.6374C32.2819 17.0374 31.4099 17.2374 30.4179 17.2374C29.2979 17.2374 28.2739 16.9494 27.3459 16.3734C26.4339 15.7974 25.7059 14.9894 25.1619 13.9494C24.6339 12.8934 24.3699 11.6854 24.3699 10.3254ZM34.8339 10.3734C34.8339 10.3734 34.6739 8.8614 34.3539 8.2854C34.0339 7.6934 33.6019 7.2454 33.0579 6.9414C32.5139 6.6214 31.9299 6.4614 31.3059 6.4614C30.6819 6.4614 30.1059 6.6134 29.5779 6.9174C29.0499 7.2214 28.6179 7.6694 28.2819 8.2614C27.9619 8.8374 27.8019 10.3254 27.8019 10.3254C27.8019 10.3254 27.9619 11.8294 28.2819 12.4374C28.6179 13.0294 29.0499 13.4854 29.5779 13.8054C30.1219 14.1254 30.6979 14.2854 31.3059 14.2854C31.9299 14.2854 32.5139 14.1334 33.0579 13.8294C33.6019 13.5094 34.0339 13.0614 34.3539 12.4854C34.6739 11.8934 34.8339 10.3734 34.8339 10.3734Z" fill="white"/>
<path d="M46.5636 13.9254C50.7575 13.9254 45.8918 4.88021 49.9236 3.7254C51.2661 3.34086 53.4996 3.7254 53.4996 3.7254L48.5796 17.0214H44.4996L39.6036 3.7254C39.6036 3.7254 41.8526 3.33611 43.2036 3.7254C47.2335 4.88669 42.3697 13.9254 46.5636 13.9254Z" fill="white"/>
<path d="M67.2667 10.0854C67.2667 10.5654 67.2347 10.9974 67.1707 11.3814C67.1067 11.7654 57.3708 10.4214 57.4508 11.3814C57.5308 12.3414 57.8668 13.0934 58.4588 13.6374C59.0508 14.1814 59.7788 14.4534 60.6428 14.4534C61.8908 14.4534 62.7788 13.9174 63.3068 12.8454C63.8348 11.7734 66.9307 12.8454 66.9307 12.8454C66.5467 14.1254 65.8107 15.1814 64.7227 16.0134C63.6347 16.8294 62.2988 17.2374 60.7148 17.2374C59.4348 17.2374 58.2827 16.9574 57.2588 16.3974C56.2508 15.8214 55.4588 15.0134 54.8828 13.9734C54.3228 12.9334 54.0428 11.7334 54.0428 10.3734C54.0428 8.9974 54.3228 7.7894 54.8828 6.74939C55.4428 5.70939 56.2268 4.9094 57.2348 4.3494C58.2428 3.7894 59.4028 3.5094 60.7148 3.5094C61.9788 3.5094 63.1067 3.7814 64.0987 4.3254C65.1068 4.8694 65.8828 5.6454 66.4268 6.6534C66.9867 7.6454 67.2667 8.7894 67.2667 10.0854ZM63.7868 9.1254C63.7708 8.2614 63.4588 7.5734 62.8507 7.0614C62.2428 6.5334 61.4988 6.2694 60.6188 6.2694C59.7868 6.2694 59.0828 6.5254 58.5068 7.0374C57.9468 7.5334 57.6027 8.2294 57.4748 9.1254C57.4748 9.1254 63.8028 9.9894 63.7868 9.1254Z" fill="white"/>
<path d="M74.3273 17.2374C73.2393 17.2374 72.2633 17.0454 71.3993 16.6614C70.5353 16.2614 69.8473 15.7254 69.3353 15.0534C68.8392 14.3814 68.5672 13.6374 68.5192 12.8214C68.4713 12.0054 71.8392 12.3094 71.9033 12.8214C71.9673 13.3334 72.2153 13.7574 72.6473 14.0934C73.0953 14.4294 74.3033 14.5974 74.3033 14.5974C74.3033 14.5974 75.4393 14.4694 75.7913 14.2134C76.1593 13.9574 76.3433 13.6294 76.3433 13.2294C76.3433 12.7974 75.6712 12.2694 75.6712 12.2694L73.5833 11.5494C73.5833 11.5494 71.7753 11.0614 71.1353 10.8054C70.5113 10.5494 69.9672 10.1574 69.5033 9.6294C69.0553 9.1014 68.8313 8.3894 68.8313 7.4934C68.8313 6.7574 69.0393 6.0854 69.4553 5.4774C69.8873 4.8694 70.4953 4.3894 71.2793 4.0374C72.0793 3.6854 73.0153 3.5094 74.0872 3.5094C75.6712 3.5094 76.9352 3.9094 77.8792 4.7094C78.8232 5.4934 79.3433 6.5574 79.4393 7.9014C79.5353 9.2454 76.2712 8.4294 76.2233 7.9014C76.1753 7.3734 75.9513 6.9574 75.5513 6.6534C75.1673 6.3334 73.9912 6.1734 73.9912 6.1734C73.9912 6.1734 72.9112 6.2854 72.5752 6.5094C72.2552 6.7334 72.0953 7.0454 72.0953 7.4454C72.0953 7.8934 72.3193 8.2374 72.7673 8.4774C73.2152 8.7014 74.8553 9.1734 74.8553 9.1734C74.8553 9.1734 76.6073 9.6614 77.2313 9.9174C77.8553 10.1734 78.3913 10.5734 78.8392 11.1174C79.3032 11.6454 79.5433 12.3494 79.5592 13.2294C79.5592 13.9974 79.3433 14.6854 78.9113 15.2934C78.4953 15.9014 77.8873 16.3814 77.0872 16.7334C76.3033 17.0694 75.3833 17.2374 74.3273 17.2374Z" fill="white"/>
<path d="M81.0214 8.6214C81.0214 6.84376 81.3894 5.5014 82.1254 4.2054C82.8774 2.89339 83.8934 1.8774 85.1734 1.1574C86.4694 0.421396 87.9174 0.0533958 89.5174 0.0533958C91.3894 0.0533958 93.0294 0.533396 94.4374 1.4934C95.8454 2.4534 96.8294 3.7814 97.3894 5.4774C97.9494 7.1734 93.9094 6.2774 93.5254 5.4774C93.1414 4.6774 92.5974 4.07739 91.8934 3.67739C91.2054 3.27739 90.4054 3.0774 89.4934 3.0774C88.5174 3.0774 87.6454 3.3094 86.8774 3.7734C86.1254 4.2214 85.5334 4.86139 85.1014 5.6934C84.6854 6.5254 84.4774 8.6214 84.4774 8.6214C84.4774 8.6214 84.6854 10.7014 85.1014 11.5494C85.5334 12.3814 86.1254 13.0294 86.8774 13.4934C87.6454 13.9414 88.5174 14.1654 89.4934 14.1654C90.4054 14.1654 91.2054 13.9654 91.8934 13.5654C92.5974 13.1494 93.1414 12.5414 93.5254 11.7414C93.9094 10.9414 97.9494 10.0294 97.3894 11.7414C96.8294 13.4534 95.8454 14.7894 94.4374 15.7494C93.0454 16.6934 91.4054 17.1654 89.5174 17.1654C87.9174 17.1654 86.4694 16.8054 85.1734 16.0854C83.8934 15.3494 82.8774 14.3334 82.1254 13.0374C81.3894 11.7414 81.0214 10.399 81.0214 8.6214Z" fill="white"/>
<path d="M105.683 17.2374C104.403 17.2374 103.251 16.9574 102.227 16.3974C101.203 15.8214 100.395 15.0134 99.8032 13.9734C99.2272 12.9334 98.9392 11.7334 98.9392 10.3734C98.9392 9.0134 99.2352 7.8134 99.8272 6.7734C100.435 5.7334 101.259 4.9334 102.299 4.3734C103.339 3.7974 104.499 3.5094 105.779 3.5094C107.059 3.5094 108.219 3.7974 109.259 4.3734C110.299 4.9334 111.115 5.7334 111.707 6.7734C112.315 7.8134 112.619 9.0134 112.619 10.3734C112.619 11.7334 112.307 12.9334 111.683 13.9734C111.075 15.0134 110.243 15.8214 109.187 16.3974C108.147 16.9574 106.979 17.2374 105.683 17.2374ZM105.683 14.3094C105.683 14.3094 106.859 14.1654 107.387 13.8774C107.931 13.5734 108.363 13.1254 108.683 12.5334C109.003 11.9414 109.163 10.3734 109.163 10.3734C109.163 10.3734 108.827 8.1414 108.155 7.4694C107.499 6.7814 105.731 6.4374 105.731 6.4374C105.731 6.4374 103.963 6.7814 103.307 7.4694C102.667 8.1414 102.347 10.3734 102.347 10.3734C102.347 10.3734 102.659 12.6134 103.283 13.3014C103.923 13.9734 105.683 14.3094 105.683 14.3094Z" fill="white"/>
</svg>
